<?xml version="1.0" encoding="utf-8"?>
<!-- Generator: Adobe Illustrator 25.0.1, SVG Export Plug-In . SVG Version: 6.00 Build 0)  -->
<svg version="1.1" id="Layer_1" xmlns="http://www.w3.org/2000/svg" xmlns:xlink="http://www.w3.org/1999/xlink" x="0px" y="0px"
	 viewBox="0 0 500 500" style="enable-background:new 0 0 500 500;" xml:space="preserve">
<style type="text/css">
	.st0{fill:#0071FF;}
</style>
<g>
	<path class="st0" d="M301.9,154.8c-2.3,0-4.5,0.9-6.2,2.7c-1.6,1.6-2.4,3.8-2.4,6.2l0.6,100.7l-92.4-106.4c-2.4-2.9-6.4-4-9.8-2.6
		c-3.4,1.3-5.7,4.5-5.7,8.1v124.2c0,4.8,4,8.7,8.7,8.7s8.7-4,8.7-8.7V186.8L296,293.3c2.3,2.8,6.3,3.8,9.6,2.4
		c3.4-1.3,5.7-4.5,5.7-8.1l-0.7-124.3C310.6,158.6,306.7,154.8,301.9,154.8z"/>
	<path class="st0" d="M302.6,421h-99.1v-35.8h98.8c4.8,0,8.7-4,8.7-8.7c0-4.8-4-8.7-8.7-8.7H194.8c-4.8,0-8.7,4-8.7,8.7v53.1
		c0,4.8,4,8.7,8.7,8.7h107.8c4.8,0,8.7-4,8.7-8.7C311.3,424.8,307.4,421,302.6,421z"/>
	<path class="st0" d="M195.6,340.8h106.7c4.8,0,8.7-4,8.7-8.7c0-4.8-4-8.7-8.7-8.7H195.6c-4.8,0-8.7,4-8.7,8.7
		C186.9,336.9,190.8,340.8,195.6,340.8z"/>
	<path class="st0" d="M399.3,168.8c-15.3-40.2-45.4-72-84.8-89.6c-39.3-17.4-83.1-18.7-123.3-3.3c-40.2,15.3-72,45.6-89.6,85.1
		c-20.1,45-18.7,96,3.8,139.8c12.1,23.6,30,43.9,51.9,58.8c1.4,0.9,3.1,1.5,5,1.5c2.9,0,5.6-1.4,7.1-3.7c1.3-1.9,1.9-4.2,1.4-6.4
		c-0.5-2.3-1.7-4.3-3.7-5.7c-19.4-13.2-35.4-31.4-46.4-52.4c-20.2-39.2-21.5-84.6-3.6-124.8c16-35.1,44.5-62.1,80.3-75.8
		c35.9-13.8,75-12.8,109.9,2.9c35,15.6,61.9,44,75.6,79.9c13.7,35.9,12.5,75.1-3,110.2c-10.8,24.3-28,45.1-49.9,60
		c-1.9,1.3-3.1,3.4-3.6,5.6c-0.5,2.3,0.1,4.6,1.4,6.5s3.4,3.1,5.6,3.6c2.3,0.5,4.5-0.1,6.5-1.4c24.5-16.8,43.8-40.1,55.9-67.2
		C413.5,252.6,414.6,208.9,399.3,168.8z"/>
</g>
</svg>
